<svg width="97" height="97" viewBox="0 0 97 97" fill="none" xmlns="http://www.w3.org/2000/svg">
<rect width="97" height="97" fill="#282828"/>
<path d="M60.0492 55.0052L54.3321 51.7714C54.0175 51.5946 53.9268 51.3129 53.9002 51.1624C53.8735 51.0119 53.8646 50.7179 54.0993 50.4449L56.4298 47.7553C57.9426 46.0159 58.7763 43.7952 58.7763 41.5011V40.6261C58.7763 37.975 57.6493 35.4166 55.685 33.6019C53.6922 31.7627 51.0843 30.8475 48.352 31.0208C43.2323 31.348 39.2237 35.6983 39.2237 40.9253V41.5011C39.2237 43.7952 40.0574 46.0159 41.5684 47.7553L43.899 50.4449C44.1354 50.7162 44.1247 51.0101 44.0981 51.1624C44.0714 51.3129 43.9807 51.5946 43.6643 51.7714L37.9526 55.0035C34.8968 56.7114 33 59.9208 33 63.3769V66H34.7777V63.3769C34.7777 60.549 36.3314 57.9241 38.8361 56.5224L44.5514 53.2885C45.2411 52.8983 45.714 52.2316 45.8491 51.4599C45.9842 50.6899 45.7673 49.9042 45.25 49.3092L42.9177 46.6196C41.6804 45.1952 40.9978 43.377 40.9978 41.5011V40.9253C40.9978 36.6188 44.2776 33.0349 48.464 32.7672C50.7075 32.6254 52.8371 33.3744 54.4673 34.8776C56.0992 36.3843 56.9987 38.4264 56.9987 40.6261V41.5011C56.9987 43.377 56.3178 45.1952 55.0788 46.6196L52.7482 49.3092C52.2327 49.9059 52.0141 50.6899 52.1492 51.4599C52.286 52.2316 52.7589 52.8983 53.4486 53.2885L59.1692 56.5242C61.6686 57.9223 63.2223 60.5472 63.2223 63.3769V66H65V63.3769C64.9982 59.9208 63.0997 56.7114 60.0492 55.0052Z" fill="#6E6E6E"/>
</svg>
