<svg width="97" height="97" viewBox="0 0 97 97" fill="none" xmlns="http://www.w3.org/2000/svg">
<rect width="97" height="97" fill="#282828"/>
<path fill-rule="evenodd" clip-rule="evenodd" d="M56.2063 51.5007L53.4225 49.8713C53.1443 49.7082 52.9526 49.4301 52.8975 49.1065C52.8428 48.7834 52.9312 48.4549 53.1403 48.2062L55.4057 45.5C56.8438 43.7886 57.6356 41.6034 57.6356 39.3482V38.4662C57.6356 35.8589 56.5651 33.3421 54.6974 31.5581C52.8039 29.7512 50.3232 28.8469 47.7262 29.0212C42.8612 29.3412 39.0506 33.6234 39.0506 38.7684V39.3478C39.0506 41.6043 39.8425 43.7886 41.2801 45.4991L43.5464 48.2062C43.7546 48.4549 43.843 48.7834 43.7883 49.1065C43.7328 49.4287 43.542 49.7082 43.2624 49.8718L37.7075 53.1253C34.8043 54.8051 33 57.9614 33 61.3611V63.9996H34.2994V61.3611C34.2994 58.4365 35.8516 55.7218 38.3528 54.2738L43.9099 51.0203C44.5255 50.6593 44.9477 50.0442 45.0693 49.332C45.1901 48.6198 44.9949 47.8969 44.5347 47.3469L42.2684 44.6385C41.0307 43.1668 40.35 41.2874 40.35 39.3469V38.7675C40.35 34.3186 43.6269 30.6172 47.8094 30.3413C50.0511 30.196 52.18 30.9698 53.8084 32.5252C55.4389 34.082 56.3363 36.1919 56.3363 38.4671V39.3482C56.3363 41.2878 55.6551 43.1677 54.4178 44.6394L52.1516 47.3465C51.6922 47.8965 51.4971 48.6203 51.6178 49.3325C51.7394 50.0442 52.1612 50.6593 52.7759 51.0194L54.749 52.1737C55.2075 51.9018 55.694 51.6746 56.2059 51.5007H56.2063ZM62.2425 45.5495V55.671C61.3509 54.6892 60.0804 54.0701 58.6681 54.0701C55.9806 54.0701 53.7944 56.2985 53.7944 59.0351C53.7944 61.7729 55.9801 64 58.6681 64C61.3552 64 63.5419 61.7729 63.5419 59.0351V47.8434L67.3503 50.0839L68 48.9363L62.2425 45.549V45.5495ZM58.6681 62.6759C56.6976 62.6759 55.0938 61.0429 55.0938 59.0346C55.0938 57.0272 56.6967 55.3942 58.6681 55.3942C60.6386 55.3942 62.2416 57.0272 62.2416 59.0355C62.2416 61.0429 60.6386 62.6759 58.6672 62.6759H58.6681Z" fill="#6E6E6E"/>
</svg>
