<svg xmlns="http://www.w3.org/2000/svg" viewBox="0 0 97 97"><defs><style>.cls-1{fill:#282828;}.cls-2{fill:#6e6e6e;fill-rule:evenodd;}</style></defs><title>Asset 1</title><g id="Layer_2" data-name="Layer 2"><g id="Layer_2-2" data-name="Layer 2"><rect class="cls-1" width="97" height="97"/><path class="cls-2" d="M41.88,35.34V56.21a6.61,6.61,0,1,0,1.47,4.15V36.53l22.07-4.7v19.9a6.56,6.56,0,0,0-5.15-2.47,6.62,6.62,0,1,0,6.63,6.62V30ZM36.73,65.51a5.15,5.15,0,1,1,5.15-5.15A5.16,5.16,0,0,1,36.73,65.51ZM60.27,61a5.15,5.15,0,1,1,5.15-5.15A5.16,5.16,0,0,1,60.27,61Z"/></g></g></svg>