<?xml version="1.0" standalone="no"?>
<!DOCTYPE svg PUBLIC "-//W3C//DTD SVG 20010904//EN"
 "http://www.w3.org/TR/2001/REC-SVG-20010904/DTD/svg10.dtd">
<svg version="1.0" xmlns="http://www.w3.org/2000/svg"
 width="752.000000pt" height="752.000000pt" viewBox="0 0 752.000000 752.000000"
 preserveAspectRatio="xMidYMid meet">
<metadata>
Created by potrace 1.14, written by Peter Selinger 2001-2017
</metadata>
<g transform="translate(0.000000,752.000000) scale(0.100000,-0.100000)"
fill="#000000" stroke="none">
<path d="M1108 6342 c-17 -19 -29 -56 -53 -175 -31 -146 -108 -266 -229 -351
-119 -85 -228 -124 -312 -112 -25 3 -92 26 -149 50 -144 62 -257 96 -316 96
-45 0 -49 -2 -49 -24 0 -31 62 -87 142 -127 173 -87 268 -155 268 -193 0 -12
-14 -62 -31 -111 -26 -73 -32 -107 -33 -180 -1 -83 2 -96 32 -157 40 -82 90
-128 197 -179 169 -82 229 -77 795 61 417 102 651 134 980 134 289 1 343 -5
667 -70 l223 -45 157 110 c215 149 367 245 565 358 92 52 170 98 173 103 11
18 -58 79 -133 118 -341 177 -744 323 -1080 392 -253 51 -376 64 -622 64 -285
1 -418 -17 -675 -89 -226 -64 -375 -80 -410 -44 -9 9 -18 61 -25 139 -17 192
-46 273 -82 232z m-101 -797 c11 -8 31 -36 43 -62 51 -109 -13 -221 -103 -178
-76 36 -89 181 -20 235 31 24 51 25 80 5z m-353 -50 c35 -35 41 -107 14 -178
-20 -53 -78 -63 -127 -21 -54 45 -51 117 7 185 27 33 80 40 106 14z"/>
<path d="M5410 5820 c-159 -13 -502 -89 -723 -160 -303 -97 -774 -348 -1159
-618 -424 -297 -603 -477 -863 -866 -256 -383 -423 -759 -471 -1056 -21 -132
-30 -549 -15 -675 31 -244 168 -495 399 -728 161 -164 306 -268 517 -372 292
-145 533 -193 900 -182 458 15 867 118 1107 280 382 259 610 647 709 1212 92
527 -154 1273 -580 1761 -141 162 -208 174 -470 85 -149 -51 -361 -138 -431
-178 -19 -11 -36 -27 -38 -37 -2 -10 44 -65 126 -149 298 -306 397 -451 482
-712 70 -218 87 -447 45 -615 -25 -97 -106 -258 -173 -341 -170 -213 -357
-334 -606 -392 -123 -28 -447 -31 -543 -5 -132 36 -215 93 -344 235 -77 85
-122 157 -157 255 -24 67 -26 86 -26 238 -1 451 140 747 541 1130 205 196 413
341 688 481 538 272 995 375 1570 355 319 -12 471 -34 835 -121 124 -30 265
-59 315 -66 95 -12 226 -7 287 11 63 18 120 69 153 135 28 55 30 68 30 165 0
99 -2 109 -33 173 -131 267 -461 486 -932 621 -187 54 -425 104 -562 120 -157
18 -455 27 -578 16z"/>
</g>
</svg>
