<?xml version="1.0" standalone="no"?>
<!DOCTYPE svg PUBLIC "-//W3C//DTD SVG 20010904//EN"
 "http://www.w3.org/TR/2001/REC-SVG-20010904/DTD/svg10.dtd">
<svg version="1.0" xmlns="http://www.w3.org/2000/svg"
 width="2271.000000pt" height="2271.000000pt" viewBox="0 0 2271.000000 2271.000000"
 preserveAspectRatio="xMidYMid meet">
<metadata>
Created by potrace 1.14, written by Peter Selinger 2001-2017
</metadata>
<g transform="translate(0.000000,2271.000000) scale(0.100000,-0.100000)"
fill="#000000" stroke="none">
<path d="M7095 22699 c-1965 -44 -2934 -204 -3785 -625 -1042 -514 -1932
-1354 -2520 -2379 -467 -814 -666 -1656 -745 -3140 -37 -714 -38 -805 -42
-4840 -4 -3890 -1 -4587 27 -5260 64 -1523 230 -2384 606 -3145 514 -1042
1354 -1932 2379 -2520 814 -467 1656 -666 3140 -745 714 -37 805 -38 4840 -42
3890 -4 4587 -1 5260 27 1523 64 2384 230 3145 606 1042 514 1932 1354 2520
2379 467 814 666 1656 745 3140 37 714 38 805 42 4840 4 3890 1 4587 -27 5260
-64 1523 -230 2384 -606 3145 -514 1042 -1354 1932 -2379 2520 -636 364 -1247
551 -2175 665 -384 47 -829 78 -1540 107 -333 13 -8323 20 -8885 7z m-1715
-1790 c107 -17 136 -36 231 -145 199 -230 604 -748 1599 -2049 1083 -1415
1161 -1515 1187 -1521 33 -9 112 8 368 77 1245 335 2557 421 3882 254 481 -61
912 -149 1457 -299 225 -62 297 -75 322 -58 6 4 108 137 228 295 551 732 2151
2807 2498 3239 126 157 150 176 246 197 121 25 243 7 334 -51 170 -108 243
-352 153 -516 -37 -68 -518 -707 -1602 -2127 -540 -708 -1003 -1322 -1010
-1341 -10 -28 37 -61 185 -130 775 -362 1344 -701 1987 -1182 360 -270 566
-452 990 -877 442 -441 664 -695 933 -1062 819 -1116 1342 -2384 1477 -3577
40 -356 38 -1158 -5 -1503 -152 -1226 -742 -2484 -1653 -3523 -149 -169 -489
-511 -672 -675 -1253 -1124 -2910 -1930 -4740 -2305 -1217 -250 -2482 -309
-3725 -174 -1607 173 -3154 677 -4452 1451 -858 510 -1740 1263 -2291 1955
-793 996 -1309 2181 -1442 3313 -38 323 -38 1138 0 1466 146 1267 721 2598
1629 3774 361 467 1091 1205 1561 1577 669 529 1410 984 2150 1318 207 94 315
148 315 159 0 32 -513 722 -1469 1976 -727 953 -1102 1456 -1124 1505 -32 70
-35 189 -7 270 62 185 178 275 385 299 6 0 39 -4 75 -10z"/>
<path d="M7850 12995 c-438 -122 -767 -685 -830 -1420 -53 -628 125 -1277 445
-1623 420 -453 978 -305 1295 343 86 176 157 414 196 650 24 154 30 545 10
719 -39 336 -151 678 -297 906 -131 204 -309 357 -479 411 -87 28 -262 35
-340 14z"/>
<path d="M14608 12995 c-609 -148 -990 -1221 -782 -2206 51 -244 154 -502 271
-678 72 -109 206 -248 295 -307 192 -128 427 -148 628 -53 342 161 600 609
692 1201 18 118 22 186 22 393 1 154 -4 284 -12 340 -67 463 -221 836 -442
1068 -170 180 -332 258 -530 256 -47 0 -110 -7 -142 -14z"/>
</g>
</svg>
