<?xml version="1.0" standalone="no"?>
<!DOCTYPE svg PUBLIC "-//W3C//DTD SVG 20010904//EN"
 "http://www.w3.org/TR/2001/REC-SVG-20010904/DTD/svg10.dtd">
<svg version="1.0" xmlns="http://www.w3.org/2000/svg"
 width="700.000000pt" height="700.000000pt" viewBox="0 0 700.000000 700.000000"
 preserveAspectRatio="xMidYMid meet">
<metadata>
Created by potrace 1.14, written by Peter Selinger 2001-2017
</metadata>
<g transform="translate(0.000000,700.000000) scale(0.100000,-0.100000)"
fill="#000000" stroke="none">
<path d="M3280 6994 c-19 -2 -84 -9 -145 -14 -546 -53 -1101 -253 -1570 -565
-873 -581 -1431 -1500 -1547 -2550 -17 -154 -17 -585 0 -730 58 -488 197 -930
418 -1327 432 -777 1141 -1362 1984 -1637 208 -68 416 -113 700 -153 62 -8
589 -12 1983 -15 l1898 -4 -4 1898 c-3 1394 -7 1921 -15 1983 -52 369 -120
640 -232 920 -261 654 -723 1221 -1315 1617 -446 298 -973 491 -1520 559 -122
15 -556 27 -635 18z m464 -1659 c581 -76 1076 -413 1370 -932 91 -162 164
-369 202 -575 22 -117 29 -380 15 -508 -81 -710 -552 -1303 -1217 -1533 -676
-235 -1410 -64 -1911 444 -643 652 -707 1670 -153 2399 298 391 755 652 1243
709 119 14 329 12 451 -4z"/>
</g>
</svg>
