<?xml version="1.0" standalone="no"?>
<!DOCTYPE svg PUBLIC "-//W3C//DTD SVG 20010904//EN"
 "http://www.w3.org/TR/2001/REC-SVG-20010904/DTD/svg10.dtd">
<svg version="1.0" xmlns="http://www.w3.org/2000/svg"
 width="752.000000pt" height="752.000000pt" viewBox="0 0 752.000000 752.000000"
 preserveAspectRatio="xMidYMid meet">
<metadata>
Created by potrace 1.14, written by Peter Selinger 2001-2017
</metadata>
<g transform="translate(0.000000,752.000000) scale(0.100000,-0.100000)"
fill="#000000" stroke="none">
<path d="M1090 6318 c-10 -24 -21 -63 -25 -88 -7 -48 -22 -116 -32 -140 -4 -8
-7 -17 -8 -20 -16 -53 -101 -174 -145 -210 -18 -14 -40 -33 -50 -42 -11 -9
-38 -27 -62 -39 -24 -12 -45 -25 -48 -28 -10 -14 -122 -43 -171 -45 -47 -3
-105 16 -269 87 -14 5 -27 11 -30 12 -3 1 -12 4 -20 7 -85 33 -188 52 -218 41
-22 -9 -13 -42 20 -78 18 -19 88 -65 156 -102 68 -37 132 -73 143 -79 11 -6
34 -24 50 -40 25 -24 29 -33 24 -66 -3 -21 -12 -52 -20 -70 -7 -18 -14 -37
-16 -43 -1 -5 -8 -29 -15 -52 -17 -58 -12 -199 9 -238 9 -16 17 -35 17 -41 0
-20 104 -119 155 -148 61 -33 162 -69 176 -61 5 4 9 2 9 -2 0 -14 156 -6 240
12 14 3 39 8 55 10 17 3 38 8 47 11 16 5 41 10 88 20 14 3 55 14 92 24 38 10
68 16 68 13 0 -3 6 -1 13 4 6 6 19 10 27 10 8 0 35 6 60 13 25 7 52 14 60 15
164 34 219 45 255 50 11 2 20 4 20 5 0 2 26 7 80 14 28 3 61 8 75 11 14 3 45
7 70 10 25 3 66 7 93 11 178 23 530 17 682 -12 10 -2 37 -6 60 -9 35 -5 153
-27 210 -40 11 -2 67 -13 124 -25 l103 -20 82 57 c44 32 98 69 118 83 21 14
38 28 38 33 0 4 6 7 14 7 8 0 21 6 28 13 12 12 63 46 218 144 63 40 295 173
353 203 78 39 35 89 -159 184 -74 36 -136 66 -138 66 -3 0 -40 16 -83 36 -122
57 -418 166 -488 180 -11 2 -31 8 -45 13 -24 10 -91 28 -135 37 -11 3 -40 9
-65 15 -46 10 -58 12 -120 23 -19 4 -42 9 -50 11 -8 3 -33 7 -55 10 -22 3 -49
7 -60 9 -20 4 -126 15 -215 22 -115 10 -370 4 -480 -11 -30 -4 -68 -9 -85 -11
-16 -1 -30 -3 -30 -4 0 -1 -13 -4 -30 -6 -16 -3 -64 -14 -105 -25 -41 -10
-127 -32 -190 -49 -170 -44 -263 -56 -317 -39 -31 10 -48 32 -37 50 3 5 2 9
-3 9 -4 0 -8 17 -9 38 -1 105 -19 225 -40 270 -20 44 -41 40 -64 -10z m-74
-780 c48 -48 63 -152 29 -205 -26 -40 -61 -47 -105 -22 -46 26 -58 66 -51 168
0 11 13 33 27 51 22 25 32 30 57 26 16 -3 36 -11 43 -18z m-370 -36 c50 -27
48 -172 -2 -211 -15 -12 -37 -21 -49 -21 -29 0 -85 51 -86 79 -1 12 -2 27 -2
34 -2 35 18 79 47 105 35 30 57 34 92 14z"/>
<path d="M5395 5823 c-16 -2 -59 -8 -95 -14 -36 -6 -81 -13 -100 -15 -19 -3
-44 -8 -55 -11 -11 -4 -24 -8 -30 -9 -5 -1 -36 -7 -67 -13 -32 -7 -60 -12 -63
-12 -2 0 -23 -6 -45 -14 -22 -8 -42 -14 -45 -15 -3 0 -6 0 -7 -1 -2 0 -10 -2
-18 -4 -64 -13 -238 -68 -330 -105 -152 -60 -460 -215 -621 -312 -34 -21 -66
-38 -70 -38 -5 0 -9 -4 -9 -10 0 -5 -5 -10 -12 -10 -21 0 -506 -334 -565 -389
-12 -12 -24 -21 -27 -21 -14 0 -253 -231 -321 -310 -17 -19 -64 -80 -105 -135
-41 -55 -77 -102 -80 -105 -3 -3 -31 -45 -63 -94 -160 -242 -285 -478 -365
-686 -52 -134 -54 -142 -58 -159 -1 -8 -9 -35 -17 -60 -59 -182 -79 -616 -42
-876 8 -58 27 -128 36 -140 5 -5 9 -15 9 -23 0 -19 92 -202 129 -256 17 -24
31 -47 31 -50 0 -3 8 -16 19 -28 82 -99 150 -177 172 -198 112 -109 208 -186
310 -250 30 -19 64 -41 75 -48 67 -44 343 -167 409 -182 6 -1 15 -4 20 -6 11
-3 138 -33 170 -39 71 -14 166 -19 355 -19 239 -1 308 5 505 39 166 29 373 84
403 108 6 5 12 7 12 4 0 -7 127 46 175 73 56 32 119 72 146 94 14 12 40 32 59
46 87 65 219 212 297 330 77 116 182 337 207 435 1 6 10 37 20 70 10 33 19 67
21 75 2 8 8 35 14 60 5 25 12 57 15 73 2 15 7 35 10 45 2 9 7 37 10 62 4 25
10 68 14 95 12 77 3 340 -13 365 -2 3 -6 26 -9 50 -5 41 -8 58 -20 115 -4 19
-31 119 -59 220 -27 97 -128 338 -177 425 -8 14 -15 27 -15 30 -2 15 -137 233
-177 285 -192 251 -259 300 -388 290 -73 -5 -88 -9 -205 -48 -239 -82 -467
-187 -473 -218 -2 -10 43 -63 111 -133 62 -64 111 -118 109 -121 -3 -3 -1 -5
5 -5 22 0 253 -291 253 -319 0 -6 4 -11 8 -11 9 0 66 -118 101 -207 12 -29 18
-53 15 -53 -4 0 -2 -6 4 -12 5 -7 13 -29 18 -48 4 -19 9 -39 10 -45 30 -107
37 -164 38 -300 0 -122 -5 -171 -23 -219 -6 -14 -8 -26 -6 -26 8 0 -44 -129
-75 -186 -49 -89 -94 -146 -201 -255 -42 -42 -96 -90 -120 -105 -24 -16 -46
-31 -49 -34 -21 -23 -206 -104 -263 -115 -10 -3 -27 -7 -37 -10 -19 -6 -53
-12 -135 -22 -67 -9 -296 -9 -365 -1 -137 17 -229 67 -356 193 -150 148 -205
245 -235 419 -11 64 -8 259 5 326 2 14 7 44 10 67 23 178 109 375 239 549 92
122 340 377 462 474 104 82 306 215 420 275 50 26 95 52 101 56 6 5 14 6 17 2
4 -3 7 -1 7 5 0 7 4 12 9 12 5 0 47 17 93 39 45 21 115 50 153 65 39 15 84 34
101 42 17 7 40 15 50 17 11 2 26 7 34 10 29 12 169 56 192 61 13 3 59 15 103
26 43 11 97 22 120 25 22 2 54 7 70 10 66 11 94 15 180 22 98 8 549 8 630 -1
28 -2 79 -7 115 -11 36 -3 72 -8 80 -10 8 -2 38 -7 65 -11 73 -9 85 -11 140
-24 28 -6 59 -14 70 -16 45 -9 62 -13 110 -24 28 -6 57 -14 65 -17 8 -3 21 -7
29 -9 7 -1 34 -8 60 -14 202 -47 400 -60 498 -32 65 19 124 70 157 136 27 53
30 66 30 164 1 119 -1 131 -39 198 -51 91 -190 248 -256 289 -9 6 -36 24 -60
41 -99 71 -266 154 -428 213 -73 27 -266 85 -318 96 -10 2 -52 11 -93 20 -41
9 -86 19 -99 21 -14 3 -28 7 -32 9 -4 3 -24 7 -45 11 -22 3 -50 7 -64 10 -14
2 -45 6 -70 9 -25 3 -61 8 -80 11 -43 6 -493 12 -535 7z"/>
</g>
</svg>
